<?xml version="1.0" encoding="UTF-8"?>
<svg width="24px" height="24px" viewBox="0 0 24 24" version="1.1" xmlns="http://www.w3.org/2000/svg" xmlns:xlink="http://www.w3.org/1999/xlink">
    <title>icons/language</title>
    <g id="icons/language" stroke="none" stroke-width="1" fill="none" fill-rule="evenodd">
        <path d="M12,1 C15.0593899,1 17.8270667,2.24897216 19.8209622,4.26484817 L19.8407829,4.28493861 C20.0285868,4.47578364 20.2094762,4.67345333 20.3830452,4.87754171 C20.3927143,4.88890976 20.4023921,4.90033614 20.4120469,4.91178248 C20.4899783,5.004176 20.5663779,5.09782271 20.6412473,5.19273258 L20.6758093,5.23677492 C22.1322054,7.10237016 23,9.44984293 23,12 C23,14.6854209 22.0377059,17.146086 20.4391354,19.0559775 L20.6754626,18.7626696 C20.5818314,18.8829314 20.4858303,19.0010154 20.387514,19.1169158 C20.3029536,19.2167572 20.2165777,19.3148709 20.1285052,19.41141 C20.1147722,19.4264225 20.1015397,19.4408529 20.0882696,19.4552468 C20.0168834,19.532693 19.9439588,19.6095346 19.8699489,19.6853114 C19.8538381,19.7018078 19.8374265,19.718506 19.8209622,19.7351518 C17.8899204,21.6874851 15.233097,22.9205039 12.2884075,22.9962926 L12,23 C8.79635883,23 5.91258801,21.6304723 3.90221056,19.4449398 L4.17825904,19.7339902 C4.06124699,19.6158331 3.94679692,19.4948471 3.83505213,19.371198 C3.75351738,19.2810012 3.67380254,19.1897843 3.595588,19.0972582 C3.5837862,19.0832888 3.5721853,19.0694973 3.56061735,19.0556764 L3.595588,19.0972582 C3.52078387,19.0087666 3.44735205,18.9190776 3.3753254,18.828224 C3.35835899,18.8068218 3.34162789,18.7855564 3.32497374,18.764228 C1.8681057,16.8984712 1,14.5506141 1,12 C1,9.49280256 1.83880338,7.18151815 3.2510903,5.3314666 L3.3245374,5.23733036 L3.3375182,5.2197372 C3.59380926,4.89275859 3.86821231,4.58065562 4.15921707,4.28493861 L4.17831332,4.26558074 C6.17293326,2.24897216 8.94061009,1 12,1 Z M12.4003499,17.3046661 L12.4005166,21.6603471 C13.6957352,21.4047148 14.9332932,19.930173 15.7452647,17.7341273 C14.7301403,17.4860836 13.6014473,17.3327176 12.4003499,17.3046661 Z M8.32153343,17.7170284 L8.25483566,17.7343988 C8.9616907,19.6460137 9.99103404,21.0108738 11.100164,21.5008664 L11.1001395,17.323698 C10.1108867,17.3760739 9.17657432,17.5134026 8.32153343,17.7170284 Z M7.00770937,18.1039125 L6.89539607,18.1430295 C6.26700423,18.3728474 5.70382136,18.6411685 5.21998855,18.9371502 C6.18222961,19.8775521 7.33928961,20.61953 8.62499635,21.0967275 C7.98682196,20.2989806 7.43692701,19.2815891 7.00770937,18.1039125 Z M16.9926162,18.1029492 L16.960576,18.1899582 C16.53615,19.3309658 15.9976581,20.3179765 15.3751864,21.0958323 C16.6603891,20.6191097 17.8170553,19.8776799 18.7790017,18.937756 C18.2665778,18.6237307 17.6656593,18.3414002 16.9926162,18.1029492 Z M6.00389975,12.4003348 L2.30814319,12.4011229 C2.39256738,14.4766622 3.12917241,16.3841084 4.31853007,17.9240331 L4.34737235,17.9605289 C4.99799697,17.5351887 5.76343936,17.164953 6.6173987,16.8642342 C6.25247802,15.5114941 6.03510223,13.9993914 6.00389975,12.4003348 Z M21.6918568,12.4011229 L17.996,12.4 C17.9646269,14.0012753 17.7472959,15.5123313 17.382514,16.8659724 C18.2372237,17.1647296 19.0026712,17.5347665 19.6532372,17.9597567 L19.6814979,17.9238961 C20.8708293,16.3841001 21.6074327,14.4766617 21.6918568,12.4011229 Z M11.1,12.4 L7.30418406,12.4007181 C7.33518229,13.8826018 7.53702308,15.2677736 7.86297716,16.4930591 C8.86417444,16.2406922 9.9543284,16.0781799 11.1000893,16.0219701 L11.1,12.4 Z M16.6958206,12.4004948 L12.4,12.4 L12.4002705,16.0043254 C13.7288637,16.0330901 14.9908547,16.2044183 16.137076,16.491268 C16.463067,15.267206 16.6648436,13.882192 16.6958206,12.4004948 Z M4.34676281,6.04024334 L4.29497321,6.10659255 C3.21489245,7.51655625 2.51308636,9.23159168 2.34119345,11.1000603 L6.01978014,11.1003096 C6.08223691,9.68579783 6.29066184,8.34690592 6.61740651,7.13432269 C5.7627763,6.83527036 4.99732877,6.46523352 4.34676281,6.04024334 Z M7.86192392,7.50848173 L7.84398405,7.579058 C7.56557277,8.64692366 7.38116789,9.83407571 7.32123541,11.0993266 L11.099,11.1 L11.099964,7.97802501 C9.95404623,7.92180425 8.86375464,7.75927014 7.86192392,7.50848173 Z M16.1369888,7.50681314 L15.9336587,7.5581364 C14.8422039,7.81523687 13.6507598,7.96859769 12.4003178,7.99567353 L12.4,11.1 L16.6787672,11.0993822 C16.6174826,9.80550512 16.4260295,8.59329989 16.1369888,7.50681314 Z M19.653637,6.0401032 L19.610043,6.06827095 C18.9688458,6.48153625 18.2183204,6.84193395 17.3830874,7.13592278 C17.7094238,8.34718338 17.9177779,9.68584594 17.9802224,11.1003179 L21.6588287,11.1003015 C21.4842635,9.20226787 20.7628837,7.4625525 19.653637,6.0401032 Z M12.4005166,2.33965293 L12.4003691,6.69533354 C13.6014368,6.66728193 14.7301069,6.51392766 15.7450845,6.26693379 C14.9334192,4.06997721 13.6958012,2.5952982 12.4005166,2.33965293 Z M11.100164,2.49913362 C10.0253285,2.97397552 9.02542184,4.27041942 8.32132158,6.08985694 L8.25493039,6.26692047 C9.1279555,6.47938347 10.0851066,6.62255788 11.1000968,6.67629961 L11.100164,2.49913362 Z M15.3750037,2.90327248 L15.4901074,3.05140119 C16.0794264,3.82531097 16.5891258,4.79002856 16.992333,5.89628748 C17.6663775,5.6586215 18.2671695,5.37648222 18.779153,5.06337485 C17.817445,4.12223928 16.6605296,3.38040296 15.3750037,2.90327248 Z M8.62481355,2.9041677 L8.58812234,2.9170443 C7.31734369,3.39462064 6.1733473,4.13123868 5.22046587,5.0625657 C5.73286639,5.37637991 6.3336527,5.65855849 7.00651678,5.89691693 C7.43685892,4.71873561 7.98671111,3.7015562 8.62481355,2.9041677 Z" id="形状结合" fill="#121212"></path>
    </g>
</svg>