<?xml version="1.0" encoding="UTF-8"?>
<svg width="24px" height="24px" viewBox="0 0 24 24" version="1.1" xmlns="http://www.w3.org/2000/svg" xmlns:xlink="http://www.w3.org/1999/xlink">
    <title>icons/store</title>
    <g id="icons/store" stroke="none" stroke-width="1" fill="none" fill-rule="evenodd">
        <path d="M20.7339923,14.9994272 C21.0913233,14.9994268 21.3811335,15.2976346 21.381619,15.6658195 L21.381619,20.6641731 C21.3801648,21.7686682 20.511553,22.6636649 19.4396187,22.6651632 L4.56092263,22.6651632 C3.4891708,22.6651632 2.61892238,21.7675736 2.61892238,20.6641731 L2.61892238,15.6658195 C2.61892238,15.2975308 2.90867777,14.9989739 3.26610914,14.9989739 C3.62354052,14.9989739 3.91329591,15.2975308 3.91329591,15.6658195 L3.91329591,20.6641731 C3.91329558,21.0323583 4.20271202,21.3309717 4.56004271,21.331472 L19.4396187,21.331472 C19.7966056,21.3304724 20.0854869,21.0320051 20.0854856,20.6641731 L20.0854856,15.6658195 C20.085485,15.4887666 20.1538657,15.3189918 20.2755351,15.1939667 C20.3972046,15.0689417 20.5621596,14.9989739 20.7339923,14.9994272 Z M7.65,16 C8.00898509,16 8.3,16.2910149 8.3,16.65 L8.3,18.35 C8.3,18.7089851 8.00898509,19 7.65,19 C7.29101491,19 7,18.7089851 7,18.35 L7,16.65 C7,16.2910149 7.29101491,16 7.65,16 Z M18.4334525,1.34999074 C19.7764308,1.3455583 20.9782341,2.19340616 21.4513153,3.46253243 L23.0657821,7.56074681 L23.1262613,7.75039488 L23.2388738,7.99822806 C23.603313,8.85105321 23.7289469,9.79137844 23.6018036,10.713295 L23.5522741,11.0085928 C23.4754227,11.3861843 23.3570934,11.7523091 23.1951065,12.1078036 L23.0556896,12.3896987 C23.0075114,12.4780316 22.9598688,12.5610425 22.912195,12.6392819 L22.8166844,12.7905224 C22.6477103,13.0470466 22.4546896,13.288307 22.2350444,13.5177854 C22.0739447,13.6829994 21.9013161,13.8363243 21.7275572,13.9703142 L21.5145341,14.1266496 L21.4080725,14.1976688 L21.0966199,14.3869693 L20.9783553,14.4479246 L20.7012593,14.5811187 L20.3483465,14.7185518 L20.1502616,14.7832873 L19.8045792,14.8712937 C19.7689943,14.8792507 19.7309747,14.8873811 19.6897307,14.8958239 C19.1855318,14.9938494 18.6664737,15.0081155 18.1724943,14.9405084 L17.8596757,14.8887989 L17.7006027,14.8523968 L17.510117,14.8007971 L17.4440161,14.7845704 L17.313276,14.7437586 L16.9699957,14.6164839 L16.7590863,14.5193985 C16.6792499,14.4820069 16.6210831,14.4539811 16.5644972,14.4245451 L16.4197323,14.3431366 L16.1832692,14.1985764 L16.0680741,14.1217721 C15.8140142,13.9451763 15.5767313,13.7440463 15.3549129,13.5175962 L15.326,13.485 L15.1801552,13.6404759 C14.4004298,14.431776 13.3577046,14.9188217 12.2282309,14.9766114 L12.0012318,14.9824089 C10.7964755,14.9817438 9.65971654,14.4897601 8.82426456,13.6435268 L8.676,13.486 L8.64720217,13.518692 C8.4848871,13.6851524 8.31210919,13.8387794 8.13891933,13.9721485 L7.93169535,14.1240503 L7.85718977,14.1750866 L7.511692,14.3862743 L7.38812323,14.4504912 L7.11349146,14.5822067 L6.74006619,14.726989 L6.57665981,14.7802049 L6.5003312,14.7998626 C6.3679293,14.8377177 6.25624637,14.8662952 6.10332432,14.8964124 C5.59662575,14.9948843 5.07615556,15.0089517 4.58602481,14.9414694 L4.26735868,14.8887835 L4.10547836,14.8512651 L3.79627318,14.7683811 L3.63300143,14.7113022 L3.3833541,14.6172897 L3.10365708,14.4871654 C3.01315206,14.4437658 2.96574003,14.4202008 2.90187597,14.3852916 L2.79949924,14.3232836 C2.72208614,14.2780325 2.653307,14.2361849 2.57498941,14.1844357 L2.47100396,14.1139256 C2.21976814,13.9396077 1.98503453,13.7409806 1.76410117,13.5154332 C1.62132923,13.366956 1.48819783,13.2100079 1.36303841,13.042498 L1.16578764,12.7590064 C1.10962071,12.6725631 1.05850296,12.5891486 1.01345887,12.5102634 L0.930204973,12.3585111 C0.751491561,12.0202231 0.61250637,11.660361 0.518778862,11.3006895 L0.44869393,10.9945591 C0.246779442,9.98428164 0.356724469,8.93675449 0.760272351,7.99568262 L0.875,7.745 L0.931974902,7.55992893 L2.54620488,3.46360739 C3.02520059,2.18663519 4.22628324,1.34288856 5.56316019,1.34999074 L18.4334525,1.34999074 Z M18.4356213,2.65000011 L5.5596897,2.65000011 C4.76851266,2.64580221 4.0528261,3.14856371 3.75946685,3.93037921 L2.15386277,8.00445029 L2.06469336,8.27235066 L2.04143498,8.32097848 C1.67184738,9.06579621 1.55951863,9.91938481 1.71776128,10.7139064 L1.72625155,10.751305 C1.79614277,11.1028583 1.91533893,11.440216 2.07337087,11.7396435 L2.09451315,11.7781172 C2.12463854,11.835495 2.15809393,11.8940828 2.19681355,11.9571972 L2.27209879,12.076259 C2.39976233,12.2700266 2.54265685,12.4495297 2.69693774,12.6100167 C2.81669487,12.7322529 2.94339307,12.8446875 3.09337319,12.9595378 L3.22505357,13.056861 L3.41820938,13.1807446 L3.52397342,13.2432193 L3.88985455,13.4193872 L4.19244743,13.5301526 L4.49041699,13.6088341 L4.55820756,13.6192644 C4.98709788,13.7032244 5.42736106,13.7032244 5.89148462,13.6133674 L5.96159789,13.5981235 L6.23197775,13.5268504 L6.57827112,13.3974223 L6.8841563,13.2470098 L7.16314672,13.0757854 L7.20237476,13.0467498 C7.3402812,12.9510645 7.47125038,12.8453853 7.61274003,12.7132784 L7.705,12.623 L7.73588134,12.5856729 C7.83730708,12.4796443 7.93327341,12.366119 8.02324366,12.245905 L8.15363491,12.0606686 L8.72624148,11.1953353 L9.25498314,12.0881468 C9.8420878,13.0795076 10.8828805,13.6817913 12.0015906,13.682409 C13.1306739,13.682409 14.1607135,13.0728723 14.749271,12.0863416 L15.2801067,11.1965633 L15.8502254,12.0616972 C15.942377,12.2015337 16.0441019,12.3350915 16.1712731,12.4806046 L16.31,12.634 L16.4519583,12.7699262 C16.5082194,12.8208712 16.5650802,12.8693053 16.6218248,12.9147402 L16.790994,13.0415588 L16.9958842,13.1728798 L17.1207965,13.2479098 L17.2265446,13.3023862 L17.4868374,13.4224389 L17.7316507,13.5126948 L18.0535614,13.6012605 L18.1489124,13.6191361 C18.5055604,13.6885725 18.8700202,13.6999662 19.2510016,13.6497175 L19.477,13.613 L19.5924489,13.5863289 L19.8167622,13.5271426 L20.1340443,13.4100849 L20.4604955,13.2532214 L20.750989,13.0748787 L20.7892064,13.0465458 C20.9747093,12.917315 21.147132,12.7713799 21.3000568,12.6145905 C21.4078578,12.5019431 21.507757,12.3844422 21.5979161,12.2647155 L21.7472946,12.0498029 L21.8590258,11.8662447 C21.878135,11.8329341 21.8976689,11.7979691 21.9178988,11.7609062 C22.0446465,11.5200996 22.1436911,11.2697779 22.2150758,11.0133866 L22.2798573,10.7416266 C22.4232592,10.0020528 22.3452801,9.23701175 22.0596847,8.547656 L21.9449014,8.29666389 C21.9296985,8.26504242 21.921475,8.24276443 21.8939671,8.15869275 L21.8381194,7.98760522 L20.237581,3.92804443 C19.9487075,3.15328727 19.2316014,2.64738347 18.4356213,2.65000011 Z M17.8214318,8 C18.169102,8.01322029 18.4443271,8.30746412 18.4443271,8.66593894 C18.4443271,9.02441376 18.169102,9.31865759 17.8214318,9.33187788 L6.17646974,9.33187788 C5.82097898,9.33187788 5.52972294,9.03268135 5.52972294,8.66548561 C5.53117257,8.29821491 5.82002466,8.00099363 6.17646974,8 L17.8214318,8 Z" id="形状结合" fill="#121212"></path>
    </g>
</svg>